<svg width="35" height="35" viewBox="0 0 35 35" fill="none" xmlns="http://www.w3.org/2000/svg">
<path d="M30.625 0H4.375C1.96219 0 0 1.96219 0 4.375V30.625C0 33.0378 1.96219 35 4.375 35H30.625C33.0378 35 35 33.0378 35 30.625V4.375C35 1.96219 33.0378 0 30.625 0Z" fill="#1976D2"/>
<path d="M29.5312 17.5H24.0625V13.125C24.0625 11.9175 25.0425 12.0312 26.25 12.0312H28.4375V6.5625H24.0625C20.4378 6.5625 17.5 9.50031 17.5 13.125V17.5H13.125V22.9688H17.5V35H24.0625V22.9688H27.3438L29.5312 17.5Z" fill="#FAFAFA"/>
</svg>
