<svg width="32" height="32" viewBox="0 0 32 32" fill="none" xmlns="http://www.w3.org/2000/svg">
<rect width="32" height="32" rx="2.625" fill="white"/>
<rect width="32" height="32" fill="#03FFC5"/>
<path d="M13.129 22L8.284 16.509V22H5.088V9.896H8.284V15.098L12.993 9.896H16.733L11.378 15.642L16.92 22H13.129ZM17.6859 9.896H23.4489C24.8316 9.896 25.9026 10.2303 26.6619 10.899C27.4213 11.5563 27.8009 12.4517 27.8009 13.585C27.8009 14.707 27.4156 15.6023 26.6449 16.271C25.8743 16.9397 24.8089 17.274 23.4489 17.274H20.8819V22H17.6859V9.896ZM23.0239 14.894C24.2253 14.894 24.8259 14.469 24.8259 13.619C24.8259 13.1883 24.6786 12.8653 24.3839 12.65C24.1006 12.4233 23.6473 12.31 23.0239 12.31H20.8819V14.894H23.0239Z" fill="black"/>
</svg>
