<svg width="35" height="35" viewBox="0 0 35 35" fill="none" xmlns="http://www.w3.org/2000/svg">
<circle cx="17.5" cy="17.5" r="17.5" fill="#0077B5"/>
<path fill-rule="evenodd" clip-rule="evenodd" d="M12.9279 8.99884C12.9279 10.0883 12.0984 10.9699 10.8011 10.9699C9.55444 10.9699 8.72491 10.0883 8.75058 8.99884C8.72491 7.85646 9.55442 7.00049 10.826 7.00049C12.0984 7.00049 12.903 7.85646 12.9279 8.99884ZM8.85488 25.2167V12.527H12.7987V25.2159H8.85488V25.2167Z" fill="white"/>
<path fill-rule="evenodd" clip-rule="evenodd" d="M15.9598 16.5774C15.9598 14.9944 15.9077 13.645 15.8555 12.529H19.2811L19.4632 14.2676H19.5411C20.0601 13.4628 21.3574 12.2441 23.4593 12.2441C26.0537 12.2441 28 13.9571 28 17.6926V25.2198H24.0561V18.1868C24.0561 16.5509 23.4857 15.4357 22.0585 15.4357C20.9683 15.4357 20.3201 16.1883 20.0609 16.9143C19.9566 17.1743 19.9053 17.5369 19.9053 17.9012V25.2198H15.9614V16.5774H15.9598Z" fill="white"/>
</svg>
